<?xml version="1.0" encoding="UTF-8"?>
<svg width="432" height="432" viewBox="0 0 432 432" xmlns="http://www.w3.org/2000/svg">
  <!-- Foreground icon (simplified version for better visibility at small sizes) -->
  <g transform="translate(216, 200)">
    <!-- Simplified lungs -->
    <path d="M-40,-30 C-60,-30 -70,-10 -70,10 C-70,30 -60,50 -40,50 C-30,50 -20,40 -20,30 L-20,10 C-20,-10 -30,-30 -40,-30 Z" 
          fill="#FFFFFF"/>
    
    <path d="M40,-30 C60,-30 70,-10 70,10 C70,30 60,50 40,50 C30,50 20,40 20,30 L20,10 C20,-10 30,-30 40,-30 Z" 
          fill="#FFFFFF"/>
    
    <!-- Simplified trachea -->
    <rect x="-5" y="-50" width="10" height="30" fill="#FFFFFF" rx="5"/>
    
    <!-- Health heart -->
    <path d="M0,-70 C-6,-78 -12,-78 -12,-70 C-12,-66 -9,-62 0,-55 C9,-62 12,-66 12,-70 C12,-78 6,-78 0,-70 Z" 
          fill="#FF6B6B"/>
  </g>
</svg>